<?xml version="1.0" encoding="utf-8"?>
<!-- Generator: Adobe Illustrator 13.0.0, SVG Export Plug-In . SVG Version: 6.00 Build 14948)  -->
<!DOCTYPE svg PUBLIC "-//W3C//DTD SVG 1.1//EN" "http://www.w3.org/Graphics/SVG/1.1/DTD/svg11.dtd">
<svg version="1.1" id="Python" xmlns="http://www.w3.org/2000/svg" xmlns:xlink="http://www.w3.org/1999/xlink" x="0px" y="0px"
	 width="493.258px" height="512px" viewBox="0 0 493.258 512" enable-background="new 0 0 493.258 512" xml:space="preserve">
<path id="canvas" fill="#F6F6F6" fill-opacity="0" d="M491.629,482H54.547V44.918h437.082V482z"/>
<g id="iconBg">
	<path fill="#007ACC" d="M464.311,99.554H81.865V72.236h382.446V99.554z"/>
	<path fill="#656565" d="M450.652,99.554v286.835H95.524V99.554H81.865v300.493h382.446V99.554H450.652z"/>
	<path fill="#424242" d="M191.135,99.554H95.524v286.835h355.128V99.554H191.135z"/>
</g>
<g id="iconFg">
	<path fill="#FFFFFF" d="M452.579,85.895l5.862,5.86l-1.92,1.94l-5.869-5.873l-5.869,5.873l-1.92-1.94l5.862-5.86l-5.862-5.859
		l1.932-1.94l5.857,5.872l5.869-5.872l1.934,1.94L452.579,85.895L452.579,85.895z M431.531,77.699h-16.394v16.392h16.394V77.699z
		 M417.871,80.433h10.927v10.926h-10.927V80.433z M402.313,91.358h-13.658v2.733h13.658V91.358z"/>
	<path fill="#339933" d="M273.088,236.142H122.841v-13.659h150.674C273.322,223.083,273.088,236.142,273.088,236.142z
		 M218.453,167.848h-95.611v13.659h95.611V167.848z M122.841,277.118v13.658h109.27v-13.658H122.841z"/>
</g>
<g id="Disc_1_">
	<path fill="#FFFFFF" d="M61.119,320.926c14.604,14.561,32.71,24.81,52.236,30.019l23.722-65.371
		c-8.671-1.154-16.926-4.688-23.766-10.25L61.119,320.926z"/>
	<path fill="#FFFFFF" d="M157.39,192.659l5.565-69.319c-7.414-1.254-14.938-1.792-22.461-1.601l9.039,69.233
		C152.188,191.312,154.819,191.875,157.39,192.659z"/>
	<path fill="#FFFFFF" d="M143.296,96.074c-78.657,0-142.421,63.764-142.421,142.421c0,78.657,63.764,142.421,142.421,142.421
		c78.656,0,142.42-63.764,142.42-142.421C285.717,159.838,221.952,96.074,143.296,96.074z M143.296,370.602
		c-72.962,0-132.107-59.145-132.107-132.106c0-72.96,59.145-132.107,132.107-132.107s132.108,59.147,132.108,132.107
		C275.404,311.457,216.258,370.602,143.296,370.602z"/>
	<circle fill="#FFFFFF" cx="143.296" cy="238.494" r="21.771"/>
	<path fill="#FFFFFF" d="M182.008,128.727l-18.502,66.795c7.976,3.755,14.737,9.668,19.531,16.983l48.648-49.693
		C218.534,147.465,201.455,135.584,182.008,128.727z"/>
	<path fill="#656565" d="M143.296,106.388c-72.962,0-132.107,59.147-132.107,132.107c0,72.962,59.145,132.106,132.107,132.106
		s132.108-59.145,132.108-132.106C275.404,165.535,216.258,106.388,143.296,106.388z M162.956,123.34l-5.565,69.319
		c-2.571-0.784-5.203-1.347-7.857-1.688l-9.039-69.233C148.017,121.548,155.542,122.086,162.956,123.34z M113.355,350.944
		c-19.526-5.209-37.632-15.458-52.236-30.019l52.192-45.603c6.84,5.562,15.095,9.096,23.766,10.25L113.355,350.944z
		 M143.296,260.266c-12.025,0-21.772-9.746-21.772-21.771s9.747-21.772,21.772-21.772c12.024,0,21.772,9.748,21.772,21.772
		S155.32,260.266,143.296,260.266z M183.037,212.505c-4.794-7.315-11.556-13.228-19.531-16.983l18.502-66.795
		c19.447,6.857,36.525,18.739,49.677,34.085L183.037,212.505z"/>
</g>
<g id="colorImportance">
	<path fill="#FFFFFF" d="M486.106,373.591c-4.776,14.386-13.672,40.115-44.344,40.115h-18.428v17.934
		c0,12.358-5.028,34.653-40.922,45.052c-12.347,3.562-23.604,5.309-35.05,5.309c-11.337,0-21.815-1.747-34.033-5.355
		c-26.184-7.69-40.242-24.096-40.242-45.005v-17.934h-17.714c-23.196,0-40.199-15.586-46.659-42.483
		c-6.406-26.57-6.406-41.257,0-67.842c6.158-25.689,26.771-39.922,52.515-39.922h11.857v-23.183
		c0-27.384,11.391-38.855,41.711-44.224c9.949-1.748,20.14-0.888,31.364-0.888h0.041c12.577,0,23.696-0.96,34.646,0.875
		c24.81,4.141,42.484,21.647,42.484,44.251v23.168h18.428c15.6,0,36.006,4.863,44.665,39.775
		C493.455,331.534,493.376,351.827,486.106,373.591z"/>
	
		<linearGradient id="path1948_1_" gradientUnits="userSpaceOnUse" x1="956.8984" y1="865.3447" x2="1084.5831" y2="975.1988" gradientTransform="matrix(1.125 0 0 1.136 -865.3101 -770.4797)">
		<stop  offset="0" style="stop-color:#5A9FD4"/>
		<stop  offset="1" style="stop-color:#306998"/>
	</linearGradient>
	<path id="path1948_3_" fill="url(#path1948_1_)" d="M346.217,205.069c-10.73,0.054-20.994,0.967-30.006,2.568
		c-26.583,4.695-31.405,14.519-31.405,32.639v23.942h62.806v7.979H261.23c-18.247,0-34.241,10.97-39.24,31.839
		c-5.766,23.915-6.022,38.849,0,63.831c4.466,18.589,15.124,31.839,33.384,31.839h21.595V371.01
		c0-20.734,17.928-39.023,39.242-39.023h62.732c17.473,0,31.399-14.386,31.399-31.926v-59.81c0-17.021-14.353-29.799-31.399-32.641
		C368.153,205.836,356.948,205.023,346.217,205.069z M312.263,224.324c6.483,0,11.786,5.388,11.786,12.004
		c0.033,6.549-5.235,11.893-11.786,11.938c-6.549-0.033-11.831-5.375-11.789-11.918c0-0.006,0-0.006,0-0.021
		C300.474,229.712,305.748,224.324,312.263,224.324z"/>
	
		<linearGradient id="path1950_1_" gradientUnits="userSpaceOnUse" x1="1133.9395" y1="1041.7012" x2="1088.3441" y2="977.1876" gradientTransform="matrix(1.125 0 0 1.136 -865.3101 -770.4797)">
		<stop  offset="0" style="stop-color:#FFD43B"/>
		<stop  offset="1" style="stop-color:#FFE873"/>
	</linearGradient>
	<path id="path1950_3_" fill="url(#path1950_1_)" d="M418.185,272.197v27.897c0,21.616-18.326,39.808-39.241,39.808h-62.732
		c-17.187,0-31.405,14.715-31.405,31.928v59.81c0,17.021,14.807,27.032,31.405,31.92c19.89,5.85,38.937,6.902,62.732,0
		c15.82-4.576,31.399-13.798,31.399-31.92v-23.943h-62.731v-7.975h94.132c18.253,0,25.049-12.733,31.404-31.84
		c6.557-19.667,6.284-38.596,0-63.833c-4.508-18.161-13.126-31.834-31.404-31.834h-23.559V272.197z M382.892,423.663
		c6.516,0,11.791,5.343,11.791,11.939c0.055,6.567-5.221,11.943-11.791,12.004l0,0c-6.57-0.067-11.845-5.437-11.79-12.004
		C371.074,429.06,376.343,423.716,382.892,423.663z"/>
</g>
</svg>
